# xmcd
#
# Track frame offsets:
# 150
# 13098
# 29659
# 42245
# 60771
# 73000
# 84790
# 97395
# 106094
# 120740
# 133817
# 147506
#
# Disc length: 2133 seconds
#
#
# Revision: 0
# Processed by: cddbd v1.5PL3 Copyright (c) Steve Scherf et al.
# Submitted via: FreeRIP 2.60 
#
DISCID=a608530c
DTITLE=Petr Novotný - Poprvé a naposled
DYEAR=1900
DGENRE=Country
TTITLE0=Vsechno je OK
TTITLE1=Amulet
TTITLE2=Kour
TTITLE3=Poznavam Vas
TTITLE4=Tiracka Modlitba
TTITLE5=Samarkand a Buchara
TTITLE6=Vlak 30-50
TTITLE7=Alabama
TTITLE8=Dialog 2000
TTITLE9=Chci se smat
TTITLE10=Vcerejsi chleb
TTITLE11=Nam cisla lzou
EXTD=
EXTT0=
EXTT1=
EXTT2=
EXTT3=
EXTT4=
EXTT5=
EXTT6=
EXTT7=
EXTT8=
EXTT9=
EXTT10=
EXTT11=
PLAYORDER=
